<svg xmlns="http://www.w3.org/2000/svg" viewBox="0 0 34 36" width="34" height="36">
	<defs>
		<filter id="flt1"> <feColorMatrix in="SourceGraphic" type="matrix" values="0 0 0 0 0.969   0 0 0 0 0.969   0 0 0 0 0.969   0 0 0 1 0" /> </filter>
	</defs>
	<style>
		tspan { white-space:pre }
		.shp0 { filter: url(#flt1);fill: #f7f7f7 } 
	</style>
	<path id="Forma 1" class="shp0" d="M3.28,10.66c1.31,2.01 2.47,4.39 2.65,4.8c0.05,0.12 0.13,0.4 0.23,0.74c0.64,-0.91 1.42,-1.67 2.35,-2.22c1.33,-0.79 2.86,-1.12 4.52,-1.04c-0.4,-0.64 -0.76,-1.3 -0.94,-1.81c-0.45,-1.32 -2.07,-6.75 -3.02,-9.07c-0.95,-2.32 -4.57,-0.67 -6.67,0.54c-2.1,1.21 -2.22,2.7 -2.01,3.11c0.21,0.41 1.58,2.95 2.9,4.96zM11.35,18.14c2.8,-1.17 3.39,0.25 3.39,0.25c0.89,-0.83 0.27,-1.81 0.27,-1.81c0,0 0.22,-0.42 -0.14,-0.85c-0.22,-0.26 -0.94,-1.22 -1.56,-2.22c-1.65,-0.08 -3.18,0.25 -4.52,1.04c-0.93,0.55 -1.71,1.31 -2.35,2.22c0.23,0.84 0.52,2.08 0.6,2.29c0.11,0.3 0.38,0.71 0.64,0.77c0.26,0.05 0.41,0.3 0.41,0.3c0.33,0.68 1.37,0.72 1.37,0.72c0,0 -0.9,-1.54 1.9,-2.71zM32.21,24.13c-0.86,-0.68 -2,-1 -2.92,-1.6c-2.36,-1.55 0.7,-2.98 1.71,-3.9c1.72,-1.57 2.17,-3.37 1.46,-5.57c-0.22,-0.69 -0.71,-1.41 -0.48,-0.72c1.22,3.75 -2.65,5.54 -4.62,7.64c-0.72,0.77 -0.62,1.61 0.13,2.38c1.45,1.49 5.83,2.75 3.12,5.07c-1.9,1.62 -4.85,1.77 -6.96,3.14c-0.28,0.19 -0.32,0.68 -0.03,0.89c2.07,1.46 4.94,1.11 6.98,2.44c-3.52,1.07 -7.21,0.37 -10.83,0.04c0.01,-0.1 0,-0.19 0,-0.19c-0.46,-2.85 -0.51,-3.47 -0.29,-4.89c0.21,-1.42 0,-1.55 0,-1.55c-2.18,-3.02 -4.82,-8.73 -4.82,-8.73c-0.35,-0.59 -1.75,-0.84 -3.48,-0.07c-1.79,0.81 -1.67,1.92 -1.67,1.92l3.04,9.07c0.11,0.29 0.6,0.43 0.6,0.43c2.85,0.83 5.17,3.74 5.48,4.2c0.31,0.45 0.53,0.28 0.53,0.28l-3.32,-7.53c-0.25,-0.06 -0.51,-0.28 -0.66,-0.61c-0.22,-0.48 -0.13,-0.99 0.2,-1.15c0.33,-0.15 0.77,0.11 0.99,0.59c0.17,0.36 0.16,0.74 0,0.97l3.17,7.24c-0.02,0 -0.05,0 -0.07,-0.01c-0.71,-0.06 0.03,0.85 2.02,1.1c4.43,0.56 6.16,0.53 10.43,-0.39c0.44,-0.09 0.45,-0.66 0.16,-0.96c-1.89,-1.95 -4.66,-1.53 -6.92,-2.6c2.88,-1.23 10.79,-3.99 7.06,-6.94z" />
</svg>